# xmcd CD database file
#
# Track frame offsets:
#	150
#	14381
#	28579
#	45503
#	64458
#	83216
#	103564
#	122698
#	143207
#	157739
#	178462
#	192297
#	209312
#	225093
#	244115
#	266292
#	286839
#	306785
#	322894
#
# Disc length: 4457 seconds
#
# Revision: 0
# Processed by: cddbd v1.5.2PL0 Copyright (c) Steve Scherf et al.
# Submitted via: CDex 1.51
#
DISCID=fa116713
DTITLE=Blue Monday Blues - 30 Years Blue Monday Blues Jam
DYEAR=2016
DGENRE=Blues
TTITLE0=Jammin' On A Monday Night
TTITLE1=Bootje Woohtje Baby
TTITLE2=Experienced Loser
TTITLE3=I Got A Feeling
TTITLE4=Bright Girl
TTITLE5=Bern's Blues
TTITLE6=Down At The Blues Jam
TTITLE7=California Smooth Breeze
TTITLE8=Another Glass Of Wine
TTITLE9=Stagger Lee Revisited
TTITLE10=Bone Cracking Blues
TTITLE11=Found A New Woman
TTITLE12=Playing The Blues On A Monday Night
TTITLE13=If I Ever Get Lucky
TTITLE14=Put That Bottle Down
TTITLE15=Hey Sweet Mama
TTITLE16=Every Time I Open My Mouth, People Kick Me Out
TTITLE17=Rainer's C-Moll Swing
TTITLE18=No More Walking In The Rain
EXTD=YEAR: 2016
EXTT0=
EXTT1=
EXTT2=
EXTT3=
EXTT4=
EXTT5=
EXTT6=
EXTT7=
EXTT8=
EXTT9=
EXTT10=
EXTT11=
EXTT12=
EXTT13=
EXTT14=
EXTT15=
EXTT16=
EXTT17=
EXTT18=
PLAYORDER=
